<svg xmlns="http://www.w3.org/2000/svg" viewBox="0 0 211.35 39.09"><defs><style>.cls-1{fill:#fff;}</style></defs><title>Asset 1</title><g id="Layer_2" data-name="Layer 2"><g id="Layer_1-2" data-name="Layer 1"><path class="cls-1" d="M19.87,38.58,18,34.86h-.2a11.06,11.06,0,0,1-4,3.32,13.19,13.19,0,0,1-5.26.89A8.25,8.25,0,0,1,2.3,36.69,9.28,9.28,0,0,1,0,30a7.62,7.62,0,0,1,3.13-6.68q3.12-2.19,9-2.47l4.69-.15v-.4q0-3.47-3.42-3.47a20.47,20.47,0,0,0-7.77,2.09l-2.8-6.4A27,27,0,0,1,15.25,10q5.41,0,8.37,2.68a9.58,9.58,0,0,1,3,7.49V38.58Zm-7.22-6.34a4.38,4.38,0,0,0,3-1.12,3.71,3.71,0,0,0,1.25-2.9V26l-2.23.1q-4.79.17-4.79,3.52Q9.93,32.24,12.65,32.24Z"/><path class="cls-1" d="M40.9,39.08a8.4,8.4,0,0,1-5.25-1.71,10.84,10.84,0,0,1-3.47-5,22.36,22.36,0,0,1-1.23-7.76q0-6.84,2.75-10.71A8.78,8.78,0,0,1,41.26,10a8.66,8.66,0,0,1,4.13.94,9.12,9.12,0,0,1,3.26,3.14h.2a46.45,46.45,0,0,1-.47-6.6V0h9.77V38.58H50.82L48.74,35h-.37A8.22,8.22,0,0,1,40.9,39.08Zm4-7.66A3.62,3.62,0,0,0,48.19,30a8.81,8.81,0,0,0,1-4.51v-.77q0-3.72-1.07-5.29a3.76,3.76,0,0,0-3.35-1.58,3.28,3.28,0,0,0-3,1.8,10.21,10.21,0,0,0-1,5.12,9.5,9.5,0,0,0,1.07,5,3.39,3.39,0,0,0,3.08,1.69Z"/><path class="cls-1" d="M72.54,39.08a8.4,8.4,0,0,1-5.24-1.71,10.84,10.84,0,0,1-3.47-5,22.36,22.36,0,0,1-1.23-7.76q0-6.84,2.75-10.71A8.78,8.78,0,0,1,72.91,10,8.67,8.67,0,0,1,77,11a9.12,9.12,0,0,1,3.24,3.17h.2A46.45,46.45,0,0,1,80,7.54V0h9.77V38.58H82.46L80.38,35H80A8.22,8.22,0,0,1,72.54,39.08Zm4-7.66A3.62,3.62,0,0,0,79.83,30a8.82,8.82,0,0,0,1-4.51v-.77q0-3.72-1.07-5.29a3.76,3.76,0,0,0-3.35-1.58,3.28,3.28,0,0,0-3,1.8,10.22,10.22,0,0,0-1.05,5.12,9.5,9.5,0,0,0,1.07,5,3.39,3.39,0,0,0,3.08,1.69Z"/><path class="cls-1" d="M105.15,38.58h-9.7V0h9.7Z"/><path class="cls-1" d="M124.41,39.08q-7,0-10.9-3.73t-3.86-10.63q0-7.12,3.6-10.92T123.51,10q6.35,0,9.81,3.31t3.44,9.51v4.31H119.43a4.81,4.81,0,0,0,1.72,3.69,6.76,6.76,0,0,0,4.43,1.34,21.37,21.37,0,0,0,4.7-.48A23.39,23.39,0,0,0,134.93,30v7a17.07,17.07,0,0,1-4.71,1.61A32.57,32.57,0,0,1,124.41,39.08Zm-.57-22.49A4,4,0,0,0,121,17.67a5.07,5.07,0,0,0-1.33,3.38H128a4.83,4.83,0,0,0-1.17-3.24,3.81,3.81,0,0,0-3-1.22Z"/><path class="cls-1" d="M148.59,38.58,137.88,10.49H148l4.76,16.61a.86.86,0,0,0,.1.42,2.68,2.68,0,0,1,.15.71c0,.28.09.56.14.87a6.64,6.64,0,0,1,.06.85h.17a9.9,9.9,0,0,1,.45-2.8l5-16.66h10.09L158.19,38.58Z"/><path class="cls-1" d="M184.79,39.08q-7,0-10.9-3.73T170,24.73q0-7.12,3.59-10.92T183.87,10q6.35,0,9.81,3.31t3.46,9.5v4.31H179.81a4.82,4.82,0,0,0,1.72,3.7A6.76,6.76,0,0,0,186,32.16a21.39,21.39,0,0,0,4.7-.48A23.35,23.35,0,0,0,195.31,30v7a17,17,0,0,1-4.71,1.61A32.58,32.58,0,0,1,184.79,39.08Zm-.57-22.49a4,4,0,0,0-2.86,1.08A5.06,5.06,0,0,0,180,21.05h8.33a4.83,4.83,0,0,0-1.15-3.24,3.81,3.81,0,0,0-3-1.22Z"/><path class="cls-1" d="M211.3,38.58h-9.65V0h9.7Z"/></g></g></svg>